<?xml version="1.0" encoding="UTF-8"?>
<svg id="Capa_1" data-name="Capa 1" xmlns="http://www.w3.org/2000/svg" viewBox="0 0 736.23 818.27">
  <g>
    <path d="M641.86,447.34c-4.34-3.17-8.72-6.2-13.14-9.09-9.15-5.98-18.44-11.38-27.85-16.18-.12-112.19.58-225.26-3.67-336.47-.54-14.13,3.51-27.72-9.05-37.95-6.14-5-12.28-6.35-20.09-6.33-72,.21-144.31,2.01-216.28,2.78-34.73.37-69.46-.67-104.05.95-14.16.66-26.14-2.36-35.32,11.68-7.91,12.07-3.26,43.01-3.13,57.79,1.24,140.96.13,282.23,4,423,.35,12.89-2.34,28.67,3.11,39.86-5.26,9.91-11.85,25.02-9.15,42.23.27,1.75.63,3.43,1.05,5.06-8.5-4.15-16.42-10.78-23.87-21.3-13.76-19.42-11.29-30.58-12.14-52.85-2.77-72.2-2.4-145.62-3.08-217.92-.62-64.51-.49-129.04-.96-193.54h-24.5c-9.24,0-20.73,13.38-21.54,22.46-3,33.65.84,74.8,1.08,109,.9,129.76,1.86,259.25,2.92,389.07.94,13.67,10.69,24.32,24.5,25.5l92.18-.81c10.2,14.41,21.07,27.88,32.51,40.35-43.74,1.75-88.47,4.88-129.64,1.41-32.53-2.74-58.57-31.23-60.55-63.44l-3.96-431.54h-20.5c-3.58,0-12.68,6.91-14.94,10.06-8.01,11.15-4.65,19.47-4.52,31.4,1.69,160.1,1.93,319.91,3.92,480.08,4.25,23.81,21.15,24.84,41.58,24.5,72.85-1.23,146.07-2.36,218.92-3.08,8.26-.08,16.72.02,25.28.17,24.89,17.85,51.33,31.54,78.58,40.53-29.03,2.89-68.64.07-90.86.3-72.52.73-145.4,2.41-217.92,3.08-28.08.26-52.89,2.28-75.07-18.02-27.65-25.31-20.8-57.95-21.43-91.56C1.65,567.92,1.39,427.25.28,286.52,0,251.77-3.92,223.02,29.51,200.83c16.54-10.98,32.5-10.99,51.73-11.77-.67-16.4-2.22-31.2,3.51-46.99,7.53-20.77,33-44.01,55.99-44.01h26.5c.81-11.07-1.1-23.61,0-34.5,3.92-38.77,36.29-58.82,72.46-60.54,32.32-1.54,66.48.43,99.08.08C411.31,2.33,484.17.94,556.7.02c26.04-.34,49.16,3.38,66.52,24.56,13.43,16.39,13.86,27.88,15.03,47.97,4,68.93,1.24,141.6,1.95,211.05.55,54.48,1.21,109.12,1.66,163.74Z"/>
    <path d="M470.37,317.66l25.07,75.75c-4.42-.24-8.86-.35-13.31-.35-7.12,0-14.38.3-21.57.89-1.97.16-3.93.35-5.9.58h-.01l-44.91-31.46-97.5,70.98,36.07-115.34-98.07-70.64,120.87-1.14,36.63-114.87,38.46,113.54,121.04-.53-96.87,72.59Z"/>
  </g>
  <g>
    <g>
      <path d="M649.56,662.46c-1.84,2.22-3.7,4.4-5.58,6.55,1.87-2.15,3.73-4.33,5.58-6.55Z"/>
      <g>
        <path d="M643.98,669.01c1.88-2.15,3.74-4.33,5.58-6.55-1.85,2.22-3.71,4.4-5.58,6.55ZM643.98,669.01c1.88-2.15,3.74-4.33,5.58-6.55-1.85,2.22-3.71,4.4-5.58,6.55ZM643.98,669.01c1.88-2.15,3.74-4.33,5.58-6.55-1.85,2.22-3.71,4.4-5.58,6.55ZM643.98,669.01c1.88-2.15,3.74-4.33,5.58-6.55-1.85,2.22-3.71,4.4-5.58,6.55ZM643.98,669.01c1.88-2.15,3.74-4.33,5.58-6.55-1.85,2.22-3.71,4.4-5.58,6.55Z"/>
        <path d="M643.98,669.01c1.88-2.15,3.74-4.33,5.58-6.55-1.85,2.22-3.71,4.4-5.58,6.55ZM643.98,669.01c1.88-2.15,3.74-4.33,5.58-6.55-1.85,2.22-3.71,4.4-5.58,6.55ZM643.98,669.01c1.88-2.15,3.74-4.33,5.58-6.55-1.85,2.22-3.71,4.4-5.58,6.55ZM643.98,669.01c1.88-2.15,3.74-4.33,5.58-6.55-1.85,2.22-3.71,4.4-5.58,6.55ZM643.98,669.01c1.88-2.15,3.74-4.33,5.58-6.55-1.85,2.22-3.71,4.4-5.58,6.55ZM643.98,669.01c1.88-2.15,3.74-4.33,5.58-6.55-1.85,2.22-3.71,4.4-5.58,6.55ZM643.98,669.01c1.88-2.15,3.74-4.33,5.58-6.55-1.85,2.22-3.71,4.4-5.58,6.55ZM643.98,669.01c1.88-2.15,3.74-4.33,5.58-6.55-1.85,2.22-3.71,4.4-5.58,6.55ZM643.98,669.01c1.88-2.15,3.74-4.33,5.58-6.55-1.85,2.22-3.71,4.4-5.58,6.55ZM643.98,669.01c1.88-2.15,3.74-4.33,5.58-6.55-1.85,2.22-3.71,4.4-5.58,6.55ZM643.98,669.01c1.88-2.15,3.74-4.33,5.58-6.55-1.85,2.22-3.71,4.4-5.58,6.55Z"/>
        <path d="M725.15,582.66c-1.34-2.05-2.72-4.18-4.08-6.39-29.72-48.33-66.95-87.96-107.67-114.58-41.3-27-85.37-40.63-131.27-40.63-6.39,0-12.81.26-19.28.79-42.18,3.45-87.02,23.58-129.71,58.22-37.27,30.25-70.78,70.44-91.94,110.27-11.52,21.69-6.32,29.86,3.12,44.7,1.51,2.38,3.07,4.83,4.75,7.61,51.13,84.66,124.83,140.67,202.2,153.68,11.67,1.96,23.36,2.94,35.02,2.94,19.75,0,39.41-2.82,58.77-8.42,32.71-9.47,64.49-26.93,94.46-51.9,31.22-26,74.51-75.84,92.93-114.25,8.51-17.73,1.18-28.99-7.3-42.04ZM659.21,650.33c-1.58,2.07-3.17,4.12-4.78,6.15-1.61,2.02-3.22,4-4.86,5.97h-.01c-1.84,2.23-3.7,4.41-5.58,6.56-.62.71-1.25,1.42-1.88,2.13-.84.94-1.68,1.87-2.53,2.8h0s-.01.01-.01.01c-2.54,2.78-5.1,5.49-7.7,8.15-.86.88-1.73,1.77-2.6,2.63-34.87,34.79-74.55,57.74-114.02,64.75-10.2,1.81-20.13,2.65-29.76,2.65-107.56,0-178.93-105.1-200.62-141.95,19.12-33.22,85.51-134.24,188.57-142.16,3.99-.31,7.97-.46,11.91-.46,88.37,0,162.43,75.23,200.41,142.63-8.18,14.27-17.08,27.68-26.54,40.14Z"/>
      </g>
    </g>
    <path d="M569.15,597.65c-3.13-21.35-13.09-40.43-28.07-53.73-16.88-14.99-38.94-21.68-63.81-19.34-33.15,3.12-57.87,20.33-69.62,48.48-12.88,30.84-7.35,68.87,13.75,94.63,15.32,18.7,36.65,28.48,61.34,28.48,6.56,0,13.35-.69,20.33-2.08,24.03-4.8,42.94-17.51,54.69-36.76,10.46-17.14,14.51-38.33,11.39-59.68ZM477.91,572.13c17.07-2.51,30.9,2.79,38.92,14.93,8.61,13.01,8.88,31.51.66,44.99-7.54,12.36-20.68,18.19-37.02,16.39-22.43-2.45-32.79-20.67-33.1-37.65-.31-16.97,9.01-35.51,30.54-38.66Z"/>
  </g>
</svg>