<?xml version="1.0" encoding="UTF-8"?>
<svg id="Capa_1" data-name="Capa 1" xmlns="http://www.w3.org/2000/svg" viewBox="0 0 869.28 157.25">
  <path d="M244.81,75.99c-.21,19.39-6.32,35.2-19.18,47.84-10.12,9.91-22.34,15.81-36.46,17.28-18.13,1.9-33.93-3.79-47.21-15.81-10.75-9.91-17.7-21.92-20.02-36.46-2.11-13.7-.42-26.98,5.9-39.62,7.17-14.54,18.13-25.29,33.51-31.19,16.02-6.32,32.04-5.48,47.42,1.9,19.81,9.48,31.4,25.71,35.41,47.21.42,3.58.42,6.96.63,8.85ZM207.29,114.35c-8.22-8.22-16.44-16.44-24.87-24.87-8.43,7.8-16.65,16.23-25.29,24.45,1.26,1.05,2.53,1.9,3.79,2.74,11.8,7.17,24.24,8.01,37.09,3.79,3.58-1.26,6.74-3.16,9.27-6.11ZM182.64,65.45c8.01-8.43,16.23-16.65,24.24-25.08-9.06-6.53-18.97-9.06-29.93-7.59-7.17.84-13.49,3.58-18.97,8.22,8.43,8.22,16.44,16.23,24.66,24.45ZM170.62,77.67c-8.22-8.01-16.23-16.02-24.45-24.03-6.11,8.64-8.22,18.34-7.17,28.87.84,7.17,3.16,13.91,7.59,19.81,8.01-8.22,16.02-16.44,24.03-24.66ZM219.31,102.12c9.69-14.33,9.69-36.04.42-47.84-8.22,8.01-16.44,15.81-24.87,24.03,8.43,8.01,16.44,15.81,24.45,23.82Z"/>
  <path d="M258.72,132.26v-5.06c.63,0,1.26-.21,1.69-.21,3.58-.63,5.48-2.95,5.9-6.96.21-1.26.21-2.53.21-3.79V33.41c0-1.48-.21-2.95-.42-4.43-.63-3.79-2.74-5.69-6.53-6.32-.42,0-.63-.21-1.05-.21v-5.06h39.2v5.06c-.63.21-1.26.21-1.9.42-3.16.63-5.06,2.74-5.69,6.11-.21,1.05-.21,2.11-.21,3.37v36.04h49.53V31.94c0-1.26-.21-2.53-.42-3.58-.63-3.37-2.95-5.06-6.32-5.48-.42,0-.84-.21-1.05-.21v-5.06h39.41v5.06c-.63.21-1.05.21-1.69.42-3.37.84-5.27,2.74-5.9,6.32-.21,1.05-.21,2.32-.21,3.37v84.72c0,1.48.21,2.74.42,4.22.63,3.16,2.53,4.85,5.69,5.48.21,0,.63,0,.84.21.21,0,.42,0,.84.21v5.27h-37.94c-1.05,0-1.48-.21-1.48-1.26.21-1.26,0-2.53,0-3.79.42,0,.84-.21,1.26-.21,4-.63,5.9-2.74,6.53-6.74.21-1.05.21-2.11.21-3.16v-39.2h-49.53v39.41c0,1.48.21,2.95.42,4.22.63,3.16,2.74,4.85,5.69,5.48.42,0,1.05.21,1.48.21v5.06c-12.86-.63-25.92-.63-38.99-.63Z"/>
  <path d="M501.93,22.45v-5.27h1.05c18.76,0,37.73-.21,56.48,0,11.8.21,21.5,4.85,28.45,14.54,4,5.48,5.27,11.8,4.64,18.55-.42,5.06-1.48,10.12-3.58,14.96-4.22,8.85-11.17,14.54-20.44,17.49-.42.21-.84.21-1.48.42,2.32,2.95,4.43,5.9,6.74,8.64,6.11,8.01,12.43,16.02,18.55,24.24,4.22,5.69,9.91,9.06,16.86,10.54,1.05.21,2.11.42,3.16.63v5.27h-29.51c-.63,0-1.26-.21-1.69-.63-14.33-18.97-28.66-37.94-43.21-56.69-.21-.21-.42-.63-.84-1.05h1.26c3.79-.21,7.59,0,11.38-.42,10.12-1.26,18.76-9.06,20.65-18.55,1.9-9.06-1.05-16.65-8.01-22.55-4.85-4.22-10.75-6.11-17.07-6.32h-5.27c1.48,1.69,3.16,3.16,4.43,4.64,3.37,4.43,5.27,9.27,5.06,14.96-.21,3.79-1.9,7.17-4,10.33-2.95,4-6.53,7.17-10.33,9.91-.63.42-.84.84-.84,1.48v50.16c0,4,2.95,7.8,6.53,8.43,1.26.21,2.74.21,4,.21h5.06v6.11h-48.26v-6.11h6.53c2.95.21,5.06-1.26,6.96-3.79-.63-.63-1.26-1.05-1.9-1.69-4.85-5.69-7.59-12.22-9.06-19.6-2.11-12.01,2.32-21.08,11.59-28.45.63-.63,1.05-1.26,1.05-2.11V30.67c0-5.48-4.22-8.22-8.22-8.22-1.9.21-4.22,0-6.74,0ZM534.6,61.02c2.95-2.32,5.48-4.64,7.38-7.59,1.9-2.74,3.37-5.48,3.16-8.85-.21-7.38-3.79-12.65-10.12-16.44q-.21,0-.42-.21v33.09ZM516.9,113.08v-34.78c-10.54,7.38-10.54,27.4,0,34.78Z"/>
  <path d="M734.61,127.2v5.27h-44.26v-5.06c.63,0,1.26-.21,1.69-.21,4.85-.84,6.96-4.43,5.48-9.06-.84-2.74-2.11-5.48-3.16-8.22-1.48-3.79-3.16-7.8-4.64-11.59-.21-.42-.42-.84-1.05-.84h-41.73c-2.11,5.69-4.43,11.59-6.53,17.49-.42,1.48-1.05,2.74-1.26,4.22-.84,4.22,1.05,6.96,5.27,7.8.63.21,1.05.21,1.69.21v5.06h-28.24v-5.06c.63-.21,1.26-.21,1.9-.42,4.22-1.05,6.96-3.79,8.43-7.59,1.9-5.06,3.79-9.91,5.69-14.96,8.64-23.18,17.07-46.58,25.71-69.76.63-1.9,1.05-3.79,1.26-5.9.21-3.16-1.69-5.27-4.85-5.9-.42,0-.84-.21-1.48-.21v-5.06h25.29c.84,0,1.26.21,1.48,1.05,13.7,32.67,27.4,65.55,41.1,98.21.21.21.21.63.42.84,2.74,5.06,5.69,9.27,11.8,9.69ZM667.8,41.84c-5.69,15.6-11.38,30.98-17.07,46.16h34.99c-5.9-15.39-11.8-30.77-17.91-46.16Z"/>
  <path d="M379.06,132.47v-5.06c.63-.21,1.26-.21,1.9-.42,3.79-.84,6.53-3.16,8.01-6.74,1.48-3.37,2.74-6.96,4.22-10.54,9.27-25.08,18.55-50.16,27.61-75.24.63-1.9,1.05-3.79,1.26-5.69.21-3.37-1.69-5.48-5.06-5.9-.42,0-.84-.21-1.26-.21v-5.06h25.08c.84,0,1.26.21,1.48,1.05,13.7,32.67,27.19,65.12,40.89,97.79.21.63.63,1.48.84,2.11,2.32,4.64,5.48,8.43,11.17,8.85v5.27h-44.26v-5.06c1.05-.21,2.11-.42,2.95-.63,3.79-1.05,5.48-4,4.43-7.8-.63-2.53-1.9-5.06-2.74-7.59-1.69-4.22-3.37-8.43-5.06-12.86-.21-.63-.63-1.05-1.48-1.05h-40.47c-.63,0-1.05.21-1.26.84-2.32,6.11-4.64,12.43-6.96,18.55-.42,1.05-.63,2.32-.84,3.58-.21,3.37,1.26,5.48,4.64,6.32.84.21,1.69.42,2.53.63v5.06c-8.85-.21-18.34-.21-27.61-.21ZM446.72,88c-6.11-15.39-12.01-30.77-18.13-46.37-5.69,15.6-11.38,30.98-17.07,46.37h35.2Z"/>
</svg>