<?xml version="1.0" encoding="UTF-8"?>
<svg id="Capa_1" data-name="Capa 1" xmlns="http://www.w3.org/2000/svg" viewBox="0 0 644 818.28">
  <path fill="#FFFFFF" d="M167.23,63.56c3.92-38.76,36.29-58.82,72.46-60.54,32.33-1.54,66.48.43,99.08.08C411.3,2.33,484.17.95,556.69.02c26.04-.33,49.16,3.39,66.52,24.56,13.44,16.39,13.87,27.88,15.03,47.97,4,68.93,1.25,141.6,1.95,211.05.71,70.19,1.6,140.65,2,211,.15,26.21,5.85,68.34-3.78,92.14-13.76,34-47.66,45.22-82.19,42.31-.03,7.17.07,14.37-.04,21.55-.26,16.55-.87,27.09-10.13,41.78-8.92,14.15-32.16,30.67-49.33,30.67h-21.5v34.5c0,19.99-23.33,44.72-41.02,51.98-25.08,10.3-85.82,5.17-115.52,5.48-72.52.74-145.4,2.42-217.92,3.08-28.08.26-52.89,2.28-75.07-18.02-27.66-25.31-20.8-57.95-21.43-91.57C1.65,567.92,1.39,427.26.28,286.52,0,251.77-3.92,223.02,29.51,200.83c16.54-10.98,32.49-10.99,51.73-11.77-.67-16.41-2.22-31.2,3.51-46.99,7.53-20.77,33.01-44.01,55.99-44.01h26.5c.82-11.07-1.1-23.61,0-34.5ZM568.05,41.33c-71.99.21-144.31,2.01-216.28,2.78-34.73.37-69.46-.67-104.05.95-14.16.66-26.13-2.36-35.32,11.68-7.91,12.08-3.26,43.02-3.13,57.79,1.24,140.96.13,282.23,4,423,.53,19.12-5.64,44.59,17.97,52.03,9.36,2.95,15.73.56,24.45.47,70.72-.76,141.42-1.27,212-2,35.27-.37,80.04,3.49,113.95-1.05,10.42-1.39,19.55-13.32,20.58-23.42,1.84-18.24-.88-37.77-1.03-55.95-1.12-139.99,1.34-282.46-4-422-.54-14.13,3.51-27.72-9.05-37.95-6.14-5-12.28-6.35-20.09-6.32ZM168.23,139.06h-24.5c-9.24,0-20.73,13.38-21.54,22.46-3,33.66.84,74.8,1.08,109,.9,129.76,1.86,259.25,2.92,389.08.93,13.67,10.69,24.31,24.5,25.5l340.07-3c8.08,1.48,24.46-12.35,24.46-19.54v-33.5c-81.81,1.51-163.63,1.31-245.54,1.96-34.74.28-62.28,4.81-85.27-27.64-13.76-19.42-11.29-30.58-12.14-52.86-2.77-72.2-2.4-145.62-3.08-217.92-.61-64.51-.49-129.04-.96-193.54ZM81.23,231.06h-20.5c-3.58,0-12.67,6.91-14.94,10.06-8.01,11.15-4.65,19.47-4.52,31.4,1.69,160.1,1.93,319.92,3.92,480.08,4.26,23.81,21.15,24.85,41.58,24.5,72.85-1.23,146.07-2.36,218.92-3.08,31.84-.32,66.74,2.1,98.08.08,9.94-.64,18.94-2.4,25.28-10.72,1.18-1.55,5.17-8.46,5.17-9.83v-29.5l-94.54-.04c-62.41-2.41-132.2,7.22-193.94,2.03-32.53-2.74-58.57-31.23-60.55-63.45l-3.96-431.54Z"/>
  <path fill="#FFFFFF" d="M567.23,245.07l-121.04.53-38.45-113.54-36.64,114.87-120.87,1.14,98.08,70.64-36.07,115.34,97.5-70.98,98.49,68.98-37.86-114.39,96.87-72.59Z"/>
</svg>